<svg xmlns="http://www.w3.org/2000/svg" viewBox="0 0 98 98" fill="#E83597">
  <path d="M61.515 49.458a5.234 5.234 0 0 0-6.632-3.299c-2.798.94-4.198 3.96-3.312 6.591l8.6 29.913h10.235v12.079H28.695v-12.08h8.29a5.244 5.244 0 0 0 5.238-5.237 5.244 5.244 0 0 0-5.238-5.237H17.473l-6.267-22.73a5.234 5.234 0 0 0-6.632-3.299c-2.793.938-4.199 3.954-3.312 6.591l8.6 29.913h10.235v12.079H2.727v2H89.97v-2H79.004v-12.08h8.29a5.244 5.244 0 0 0 5.237-5.237 5.243 5.243 0 0 0-5.237-5.237H67.782l-6.267-22.73zM11.368 80.662L3.171 52.155a3.236 3.236 0 0 1 2.04-4.1c1.697-.569 3.532.35 4.083 1.986l6.655 24.147h21.036c1.785 0 3.238 1.452 3.238 3.237s-1.453 3.238-3.238 3.238H11.368zm10.73 14.079v-12.08h4.597v12.08h-4.598zm54.906 0h-4.598v-12.08h4.598v12.08zM90.53 77.425a3.241 3.241 0 0 1-3.237 3.238H61.677L53.48 52.155a3.236 3.236 0 0 1 2.04-4.1c1.696-.569 3.531.35 4.083 1.986l6.655 24.147h21.036a3.24 3.24 0 0 1 3.237 3.237z"/>
  <path d="M48.51 45.028V19.306c0-4.58-3.726-8.305-8.305-8.305H23.493c-4.58 0-8.305 3.726-8.305 8.305v25.722c0 4.58 3.726 8.305 8.305 8.305h16.712c4.58 0 8.305-3.726 8.305-8.305zM23.493 13h16.712a6.312 6.312 0 0 1 6.305 6.305v1.96H17.188v-1.96a6.312 6.312 0 0 1 6.305-6.305zm-6.305 32.027V23.267H46.51v21.76a6.312 6.312 0 0 1-6.305 6.306H23.493a6.312 6.312 0 0 1-6.305-6.305z"/>
  <path d="M42.48 37.693a3.799 3.799 0 0 0-3.801-3.788h-.758c-.586-2.844-3.09-4.953-6.066-4.953a6.209 6.209 0 0 0-6.078 4.953h-.758a3.793 3.793 0 0 0-3.8 3.788 3.798 3.798 0 0 0 3.8 3.788h13.66c2.15 0 3.8-1.75 3.8-3.788zm-3.801 1.788h-13.66c-.992 0-1.8-.802-1.8-1.788 0-.949.764-1.788 1.8-1.788h2.586l.048-.949a4.212 4.212 0 0 1 4.202-4.004c2.234 0 4.074 1.758 4.19 4.004l.049.949h2.585c.993 0 1.8.802 1.8 1.788 0 .97-.786 1.788-1.8 1.788zM27.398 16.097H36.3v2h-8.902zM88.697 11.001H71.985c-4.58 0-8.305 3.726-8.305 8.305v25.722c0 4.58 3.726 8.305 8.306 8.305h16.71c4.58 0 8.306-3.726 8.306-8.305V19.306c0-4.58-3.725-8.305-8.305-8.305zm0 40.332H71.985a6.312 6.312 0 0 1-6.305-6.305V23.267h29.322v21.76a6.312 6.312 0 0 1-6.305 6.306zm6.305-30.066H65.68v-1.96A6.312 6.312 0 0 1 71.985 13h16.712a6.312 6.312 0 0 1 6.305 6.305v1.96z"/>
  <path d="M87.171 33.905h-.758c-.586-2.843-3.09-4.953-6.066-4.953a6.209 6.209 0 0 0-6.078 4.953h-.758c-2.095 0-3.8 1.7-3.8 3.788s1.705 3.789 3.8 3.789h13.66c2.096 0 3.8-1.7 3.8-3.789s-1.704-3.788-3.8-3.788zm0 5.576h-13.66c-.992 0-1.8-.802-1.8-1.788s.808-1.788 1.8-1.788h2.586l.048-.949a4.212 4.212 0 0 1 4.202-4.004c2.234 0 4.074 1.758 4.19 4.004l.048.949h2.586c.993 0 1.8.802 1.8 1.788s-.807 1.788-1.8 1.788zM75.89 16.097h8.902v2H75.89zM6.526 56.54l1.928-.533.533 1.929-1.928.532zM7.592 60.394l1.927-.532.534 1.928-1.928.533zM9.19 66.174l-.533-1.928 1.928-.533.533 1.928zM58.012 60.393l1.927-.533.533 1.928-1.927.533zM59.605 66.171l-.533-1.927L61 63.71l.533 1.927zM56.947 56.538l1.927-.533.533 1.928-1.927.533zM22.28 76.228h2v2h-2zM26.28 76.228h2v2h-2zM30.28 76.228h2v2h-2zM76.973 76.228h2v2h-2zM80.973 76.228h2v2h-2zM72.973 76.228h2v2h-2zM6.071 8.333h2v2h-2zM10.071 8.333h2v2h-2zM2.071 8.333h2v2h-2zM39.197 1.258h2v2h-2zM43.197 1.258h2v2h-2zM47.197 1.258h2v2h-2zM76.587 3.928h2v2h-2zM80.587 3.928h2v2h-2zM72.587 3.928h2v2h-2zM83.138 56.255h2v2h-2zM87.138 56.255h2v2h-2zM79.138 56.255h2v2h-2zM26.925 55.274h2v2h-2zM34.925 55.274h2v2h-2zM30.925 55.274h2v2h-2z"/>
</svg>