<svg xmlns="http://www.w3.org/2000/svg" viewBox="0 0 361.457 361.457" fill="#7C2A8B">
  <path d="M167.493 126.172H73.38a7.5 7.5 0 0 0-7.5 7.5v1.911H7.5a7.5 7.5 0 0 0 0 15h58.38v60.291H7.5a7.5 7.5 0 0 0 0 15h58.38v1.912a7.5 7.5 0 0 0 7.5 7.5h94.113a7.5 7.5 0 0 0 7.5-7.5v-94.114a7.5 7.5 0 0 0-7.5-7.5zm-7.5 94.114H80.88v-79.114h79.113v79.114z"/>
  <path d="M96.908 211.758h47.057a7.5 7.5 0 0 0 7.5-7.5V157.2a7.5 7.5 0 0 0-7.5-7.5H96.908a7.5 7.5 0 0 0-7.5 7.5v47.058a7.5 7.5 0 0 0 7.5 7.5zm7.5-47.058h32.057v32.058h-32.057V164.7zM353.957 210.874h-78.378v-60.291h78.378a7.5 7.5 0 0 0 0-15h-78.378v-1.912a7.5 7.5 0 0 0-7.5-7.5h-47.058a7.5 7.5 0 0 0-7.5 7.5v16.027h-16.026a7.5 7.5 0 0 0-7.5 7.5v47.057a7.5 7.5 0 0 0 7.5 7.5h16.026v16.029a7.5 7.5 0 0 0 7.5 7.5h47.058a7.5 7.5 0 0 0 7.5-7.5v-1.91h78.378a7.5 7.5 0 0 0 0-15zm-93.378 9.41h-32.058v-16.029a7.5 7.5 0 0 0-7.5-7.5h-16.026v-32.057h16.026a7.5 7.5 0 0 0 7.5-7.5v-16.027h32.058v79.113z"/>
</svg>